# xmcd CD database file
#
# Track frame offsets:
#	150
#	18886
#	39186
#	66716
#	97884
#	115937
#	132402
#	153675
#	179594
#	198770
#	220148
#
# Disc length: 3378 seconds
#
# Revision: 1
# Processed by: cddbd v1.5.2PL0 Copyright (c) Steve Scherf et al.
# Submitted via: CDex 1.51
#
DISCID=980d300b
DTITLE=Romano Vignolo Trotignon - Flower power
DYEAR=2006
DGENRE=Jazz
TTITLE0=Love me, please love me
TTITLE1=Say it ain't so
TTITLE2=Valse de Melody
TTITLE3=Sea song
TTITLE4=Black dog
TTITLE5=Don't let me be lonely
TTITLE6=Mr Tambourine man
TTITLE7=Bridge over troubled water
TTITLE8=C'est extra
TTITLE9=Your song
TTITLE10=The end
EXTD=YEAR: 2006
EXTT0=
EXTT1=
EXTT2=
EXTT3=
EXTT4=
EXTT5=
EXTT6=
EXTT7=
EXTT8=
EXTT9=
EXTT10=
PLAYORDER=
